HIERARCHY
ROOT Hips
{
  OFFSET 0 0 0
  CHANNELS 6 Xposition Yposition Zposition Zrotation Yrotation Xrotation
  JOINT LeftThigh
  {
    OFFSET 8.409438 0 -5.917753
    CHANNELS 3 Zrotation Yrotation Xrotation
    JOINT LeftLeg
    {
      OFFSET 0 0 -42.358652
      CHANNELS 3 Zrotation Yrotation Xrotation
      JOINT LeftFoot
      {
        OFFSET 0 0 -39.357303
        CHANNELS 3 Zrotation Yrotation Xrotation
      }
    }
  }
  JOINT RightThigh
  {
    OFFSET -8.409438 0 -5.917753
    CHANNELS 3 Zrotation Yrotation Xrotation
    JOINT RightLeg
    {
      OFFSET 0 0 -42.358652
      CHANNELS 3 Zrotation Yrotation Xrotation
      JOINT RightFoot
      {
        OFFSET 0 0 -39.357303
        CHANNELS 3 Zrotation Yrotation Xrotation
      }
    }
  }
  JOINT SpineLow
  {
    OFFSET 0 0 4.719101
    CHANNELS 3 Zrotation Yrotation Xrotation
    JOINT SpineMid
    {
      OFFSET 0 0 12.899191
      CHANNELS 3 Zrotation Yrotation Xrotation
      JOINT Chest
      {
        OFFSET 0 0 12.899191
        CHANNELS 3 Zrotation Yrotation Xrotation
        JOINT LeftShoulder
        {
          OFFSET 7.550562 1.41573 9.438202
          CHANNELS 3 Zrotation Yrotation Xrotation
          JOINT LeftArm
          {
            OFFSET 9.155056 0 4.247191
            CHANNELS 3 Zrotation Yrotation Xrotation
            JOINT LeftForearm
            {
              OFFSET 0 0 25.771955
              CHANNELS 3 Zrotation Yrotation Xrotation
              JOINT LeftHand
              {
                OFFSET 0 0 25.197169
                CHANNELS 3 Zrotation Yrotation Xrotation
              }
            }
          }
        }
        JOINT RightShoulder
        {
          OFFSET -7.550562 1.41573 9.438202
          CHANNELS 3 Zrotation Yrotation Xrotation
          JOINT RightArm
          {
            OFFSET -9.155056 0 4.247191
            CHANNELS 3 Zrotation Yrotation Xrotation
            JOINT RightForearm
            {
              OFFSET 0 0 -25.771955
              CHANNELS 3 Zrotation Yrotation Xrotation
              JOINT RightHand
              {
                OFFSET 0 0 -25.197169
                CHANNELS 3 Zrotation Yrotation Xrotation
              }
            }
          }
        }
        JOINT Neck
        {
          OFFSET 0 0 15.101124
          CHANNELS 3 Zrotation Yrotation Xrotation
          JOINT Head
          {
            OFFSET 0 0 11.325843
            CHANNELS 3 Zrotation Yrotation Xrotation
            End Site
            {
              OFFSET 0 0 14.157303
            }
          }
        }
      }
    }
  }
}
MOTION
Frames: 8
Frame Time: 0.01
0.0  101.685394  0.0  -2.192589  1.235177  -101.900119  35.724786  -26.490264  -0.368524  -8.199803  9.146557  26.376731  6.949061  3.077613  4.448748  -11.998727  12.408233  -3.984311  6.197831  2.129597  19.777871  5.802968  2.334206  -1.948781  -0.840662  -0.84136  1.409355  -2.34684  -2.249561  3.882435  -2.34684  -2.249561  3.882435  -15.882474  30.531461  2.866589  91.220993  76.646983  165.754994  -33.707067  14.800178  99.132062  65.521788  -9.301334  -9.72236  15.79732  -9.927831  28.66922  48.956394  57.633477  -31.629282  -24.602024  -22.672936  -89.935496  61.843242  16.731898  -0.869566  5.829828  0.673355  -2.841797  4.375564  0.47797  -2.137977  
0.0  101.685394  0.0  -1.957348  1.401192  -101.59069  35.064463  -25.845076  -0.499068  -7.741142  9.037679  26.814232  7.167721  3.040707  4.487608  -12.456656  12.664038  -4.57046  6.56423  2.158972  20.235572  5.694794  2.403572  -2.06979  -0.951652  -0.818876  1.470184  -2.650811  -2.179113  4.051471  -2.650811  -2.179113  4.051472  -15.827706  30.324427  2.499379  93.244542  76.230934  167.823219  -33.596703  14.855609  98.907137  65.785285  -9.328802  -9.697702  16.004068  -9.853928  28.251633  46.461425  56.017569  -33.433018  -22.045827  -22.788892  -89.697866  63.056145  16.101336  -1.053789  6.067302  0.793356  -3.272031  4.554806  0.562617  -2.462148  
0.0  101.685394  0.0  -1.510243  0.842372  -101.099699  35.37864  -25.105949  -0.699449  -7.289174  8.832891  27.176296  7.161152  3.05593  4.509494  -12.728893  12.95785  -5.50345  6.921468  2.218342  20.646055  6.011811  2.498851  -2.137956  -0.969636  -0.793101  1.561219  -2.701174  -2.10383  4.299795  -2.701174  -2.10383  4.299795  -15.904227  30.04622  1.708146  95.323043  75.808622  169.809283  -33.604756  14.510272  98.73326  65.982418  -9.363241  -9.451588  16.424857  -9.561509  27.333676  45.406108  55.044333  -33.511668  -19.954247  -22.592891  -89.949521  64.163352  15.270954  -1.206249  6.476882  0.945515  -3.863119  4.863758  0.668314  -2.907682  
0.0  101.685394  0.0  -0.859704  0.031812  -100.863697  35.660257  -24.311373  -0.587735  -6.787721  8.55378  27.525122  7.231446  3.102837  4.610511  -12.575381  13.441249  -6.173665  7.304143  2.3011  21.04978  6.175659  2.536938  -2.231709  -0.932149  -0.723808  1.603453  -2.595304  -1.915322  4.411174  -2.595304  -1.915322  4.411174  -15.538953  29.911027  1.649742  97.233013  75.37565  171.492306  -33.492875  14.08634  98.836457  67.797435  -7.841977  -10.920078  16.724634  -9.440946  26.835009  44.986052  54.228641  -32.689032  -18.004083  -21.808138  -90.533071  65.10869  14.46068  -1.453448  6.772265  0.99437  -4.164661  5.086127  0.699766  -3.134893  
0.0  101.685394  0.0  -0.44317  -0.910046  -101.069693  36.110756  -24.057922  -0.23273  -6.431604  8.364772  27.865154  7.254851  3.145101  4.648904  -12.442829  13.74021  -6.453557  7.836181  2.354394  21.453892  6.466137  2.620231  -2.273571  -0.856906  -0.674757  1.662706  -2.387914  -1.784209  4.569122  -2.387914  -1.784209  4.569122  -15.167309  29.793034  1.965979  98.934314  74.991699  173.12699  -33.44279  13.687863  98.778763  67.624169  -7.73212  -10.983976  16.879692  -9.428105  26.512818  45.458323  53.718577  -31.279919  -16.791807  -20.564079  -90.851482  66.018096  13.768047  -1.703379  7.061145  0.968162  -4.251478  5.302771  0.677143  -3.200226  
0.0  101.685394  0.0  -0.228026  -1.759439  -101.410984  36.392709  -24.049798  0.10602  -6.270492  8.241651  28.092773  7.467754  3.220981  4.796373  -12.334917  13.902987  -6.571902  8.369883  2.349372  21.86974  6.738124  2.709757  -2.302856  -0.776262  -0.651514  1.67035  -2.166118  -1.726056  4.587074  -2.166118  -1.726056  4.587074  -14.563619  29.82989  2.829178  100.490088  74.58605  174.431211  -33.231081  13.793882  99.009117  67.375245  -7.615386  -11.206065  16.653515  -9.421688  26.473239  47.813519  53.713074  -28.634086  -16.853731  -19.142703  -91.075981  66.896139  13.085421  -1.71349  7.238684  0.878954  -4.076077  5.435055  0.611067  -3.06792  
0.0  101.685394  0.0  -0.155125  -2.308923  -101.728588  36.466002  -24.11914  0.367547  -6.165556  8.197028  28.406429  7.627998  3.273536  4.836507  -12.508167  13.976902  -6.693549  9.057312  2.284338  22.264023  6.833198  2.796713  -2.311524  -0.72906  -0.648204  1.653293  -2.036473  -1.72083  4.539131  -2.036472  -1.72083  4.539131  -14.069981  29.918265  3.732885  101.546175  74.168629  175.455415  -33.163196  14.136386  98.994015  67.122781  -7.642518  -11.423206  16.584154  -9.483689  26.610704  50.754507  54.103932  -25.706097  -17.770127  -17.643202  -91.141403  67.50662  12.382949  -1.446499  7.411527  0.802167  -3.789648  5.563781  0.555786  -2.852416  
0.0  101.685394  0.0  -0.200106  -2.634344  -101.987046  36.425838  -24.255101  0.565708  -6.131977  8.178321  28.699122  7.80262  3.332404  4.85938  -12.840559  13.959003  -6.831979  9.864528  2.150646  22.670999  6.776055  2.896282  -2.329216  -0.705826  -0.666635  1.651458  -1.974224  -1.772833  4.534117  -1.974224  -1.772833  4.534117  -13.405455  30.096473  4.542401  102.104071  73.695041  175.97804  -32.954519  14.832731  99.231441  66.947123  -7.764563  -11.492821  16.321689  -9.405862  26.443974  54.508013  54.618389  -22.475053  -19.156951  -16.407041  -91.083384  67.666628  11.67485  -0.999231  7.530286  0.746953  -3.568969  5.652224  0.51635  -2.686377  
